<?xml version="1.0" standalone="no"?><!DOCTYPE svg PUBLIC "-//W3C//DTD SVG 1.1//EN" "http://www.w3.org/Graphics/SVG/1.1/DTD/svg11.dtd"><svg t="1678517887130" class="icon" viewBox="0 0 1024 1024" version="1.1" xmlns="http://www.w3.org/2000/svg" p-id="2315" xmlns:xlink="http://www.w3.org/1999/xlink" width="200" height="200"><path d="M512 512m-512 0a512 512 0 1 0 1024 0 512 512 0 1 0-1024 0Z" fill="#FFFFFF" p-id="2316" class="custom-cursor-on-hover"></path><path d="M884.696 519.76c-41.32 9.536-82.576-16.24-92.112-57.552s16.24-82.576 57.56-92.112l-37.44-162.136a12.64 12.64 0 0 0-15.344-9.592L123.872 353.856a12.64 12.64 0 0 0-9.592 15.352l37.432 162.136c41.312-9.536 82.568 16.24 92.104 57.552 9.544 41.312-16.24 82.568-57.552 92.112l31.68 137.192a12.64 12.64 0 0 0 15.344 9.592l673.488-155.488a12.64 12.64 0 0 0 9.592-15.352l-31.68-137.192z" fill="#FF7400" p-id="2317"></path><path d="M230.528 840.744c-4.856 0.296-9.288-1.144-13.312-4.32-6.352-2.64-10.128-8.336-11.752-15.344l-34.552-149.664 12.48-2.88c34.288-7.92 55.872-42.464 47.952-76.76-7.92-34.296-42.456-55.88-76.752-47.96l-12.48 2.88-40.304-174.608c-1.616-7.016-0.72-13.792 2.88-19.552 3.6-5.76 9.288-9.536 16.304-11.152L794.48 185.896c14.032-3.24 27.464 5.16 30.704 19.184l40.304 174.608-12.472 2.88c-34.296 7.92-55.88 42.464-47.96 76.76 3.784 16.368 13.616 30.52 28.184 40.288 14.4 8.992 31.424 11.632 48.576 7.68l12.472-2.88 34.552 149.656c3.24 14.032-5.16 27.464-19.184 30.704L236.16 840.264c-1.56 0.36-3.896 0.896-5.64 0.48zM201.44 689.816l28.976 125.504 673.488-155.488-28.976-125.496a82.96 82.96 0 0 1-54.864-13.608c-20.152-12.592-34.544-32.256-39.944-55.64-10.08-43.656 14.2-87.848 54.856-103.8l-34.728-150.448-673.488 155.488 34.736 150.44c43.528-3.48 84.72 25.6 94.8 69.248 10.08 43.656-14.2 87.848-54.856 103.8z" fill="#333333" p-id="2318"></path><path d="M729.28 700.144l-11.512-49.888 24.944-5.76 11.52 49.888-24.944 5.76z m-17.272-74.832l-17.28-74.832 24.952-5.76 17.28 74.832-24.952 5.76z m-23.032-99.776l-17.28-74.832 24.944-5.76 17.28 74.832-24.944 5.76z m-23.04-99.776l-17.272-74.832 24.944-5.76 17.28 74.832-24.944 5.76z m-23.032-99.776l-17.28-74.832 24.952-5.76 17.28 74.832-24.952 5.76z" fill="#2C2C2C" p-id="2319"></path><path d="M421.6 427.16l-3.424-14.808 16.368-3.776 3.416 14.8 91.2-21.048 3.24 14.032-91.2 21.056 2.88 12.472 70.936-16.376 15.12 65.472-10.92 2.52c15.776 7.856 28.24 15.648 37.24 22.608l-9.712 11.272c-4.976-3.776-9.952-7.552-15.712-11.152a4128.952 4128.952 0 0 1-165.192 45.52l-5.576-13.488c31-7.976 59.84-14.64 85.384-21.352l-3.24-14.032-70.936 16.376-15.12-65.472 70.944-16.376-2.88-12.48-91.2 21.056-3.24-14.024 91.616-22.8z m-25.776 147.992c-1.136 19.968-5.152 38.136-11.272 54.32l-15.224-5.504c7.072-15.6 10.664-32.024 11.744-48.696l14.752-0.12z m38.184-94.208l-3.416-14.8-55.344 12.768 3.416 14.816 55.344-12.784z m2.52 10.92l-55.344 12.776 3.424 14.808 55.344-12.776-3.424-14.808z m7.392 128.016c-13.256 3.056-20.928-1.736-23.808-14.208l-9-38.976 15.592-3.6 8.28 35.856c1.08 4.68 4.912 7.08 10.368 5.816l51.448-11.88c3.896-0.896 6.84-2.4 8.64-5.28 1.792-2.872 1.736-10.248-0.368-22.896l15.896 1.256c2.216 16.72 1.44 27.584-1.56 32.376-3.176 4.016-8.272 6.84-16.072 8.64l-59.416 12.896z m5.68-142.528l55.344-12.784-3.416-14.8-55.344 12.768 3.416 14.816z m41.56 94.672l-10.488 11.456c-8.216-7.136-19.728-14.328-33.16-22.72l10.672-10.68c13.432 8.4 24.944 15.592 32.976 21.944z m17.08-96.72l-55.344 12.776 3.424 14.808 55.344-12.776-3.424-14.808z m-2.928 33.52l4.736-4.376-51.448 11.872 3.24 14.032a7960.72 7960.72 0 0 0 54.8-15.12c-3.84-2.392-7.68-4.792-11.328-6.408z m65.6 63.68l-10.488 11.44c-11.64-11.264-25.968-23.552-43.776-36.688l10.672-10.672a526.592 526.592 0 0 1 43.6 35.92z" fill="#434343" p-id="2320"></path><path d="M873.6 601.6c-42.4 0-76.8-34.4-76.8-76.8s34.4-76.8 76.8-76.8V281.6c0-7.2-5.6-12.8-12.8-12.8H169.6c-7.2 0-12.8 5.6-12.8 12.8V448c42.4 0 76.8 34.4 76.8 76.8s-34.4 76.8-76.8 76.8v140.8c0 7.2 5.6 12.8 12.8 12.8h691.2c7.2 0 12.8-5.6 12.8-12.8V601.6z" fill="#FFB900" p-id="2321"></path><path d="M860.8 768H169.6c-14.4 0-25.6-11.2-25.6-25.6V588.8h12.8c35.2 0 64-28.8 64-64s-28.8-64-64-64H144V281.6c0-14.4 11.2-25.6 25.6-25.6h691.2c14.4 0 25.6 11.2 25.6 25.6v179.2h-12.8c-35.2 0-64 28.8-64 64s28.8 64 64 64h12.8v153.6c0 14.4-11.2 25.6-25.6 25.6zM169.6 613.6v128.8h691.2V613.6c-43.2-6.4-76.8-44-76.8-88.8s33.6-82.4 76.8-88.8V281.6H169.6v154.4c43.2 6.4 76.8 44 76.8 88.8s-33.6 82.4-76.8 88.8z" fill="#333333" p-id="2322"></path><path d="M707.2 742.4h-25.6v-51.2h25.6v51.2z m0-76.8h-25.6v-76.8h25.6v76.8z m0-102.4h-25.6v-76.8h25.6v76.8z m0-102.4h-25.6V384h25.6v76.8z m0-102.4h-25.6v-76.8h25.6v76.8z" fill="#2C2C2C" p-id="2323"></path><path d="M553.6 401.6V416h-69.6v18.4h52.8v51.2H365.6v-51.2h52.8V416h-69.6v-14.4h204.8z m-4 132v14.4h-88V584c0 12.8-7.2 19.2-20.8 19.2h-20.8l-3.2-14.4c6.4 0.8 12.8 0.8 18.4 0.8 6.4 0 9.6-3.2 9.6-8.8v-32H352.8v-14.4h196.8z m-130.4 32.8c-15.2 13.6-34.4 24.8-56.8 34.4l-9.6-12.8c22.4-9.6 40.8-20 56-32l10.4 10.4z m108.8-64v13.6H375.2v-13.6H528zM418.4 448h-36.8v24h36.8v-24z m50.4-32h-34.4v18.4h34.4V416z m0 32h-34.4v24h34.4v-24z m52 0h-36.8v24h36.8v-24zM552 589.6l-11.2 11.2c-12.8-11.2-30.4-22.4-52.8-35.2l11.2-10.4c20 12 38.4 23.2 52.8 34.4z" fill="#434343" p-id="2324"></path></svg>